<svg width="72" height="22" viewBox="0 0 72 22" fill="none" xmlns="http://www.w3.org/2000/svg">
<g clip-path="url(#clip0_526_40893)">
<path d="M11.3793 19.4691C9.39703 19.4691 7.61768 18.254 6.89636 16.4081L5.9621 14.0199C5.86627 13.803 5.76447 13.6626 5.65667 13.5974C5.5482 13.5321 5.37252 13.4995 5.12964 13.4995H4.71376L4.46756 15.5184C4.19206 17.7736 2.27763 19.4691 0.00585938 19.4691L1.91364 3.94998C2.19045 1.69484 4.10621 0 6.37865 0L5.03915 10.9117H5.31198C5.53756 10.9117 5.71922 10.8771 5.85828 10.8079C5.9967 10.7387 6.13577 10.6129 6.27419 10.4306L8.22854 7.75289C9.02973 6.65561 10.3033 6.00348 11.6615 5.99616L13.9472 5.98286L10.1756 10.7819C10.0019 11.0075 9.81161 11.2071 9.60331 11.3801C9.39504 11.5538 9.17811 11.7055 8.9532 11.8353C9.13552 11.983 9.29323 12.154 9.42765 12.349C9.56207 12.544 9.68117 12.7676 9.78499 13.0191L12.4899 19.4697H11.3793V19.4691Z" fill="#1A1A1A"/>
<path d="M13.9219 19.4691L15.8084 3.95065C16.0825 1.69551 17.997 0 20.2686 0L18.3822 15.5184C18.1074 17.7736 16.1936 19.4691 13.9219 19.4691Z" fill="#1A1A1A"/>
<path d="M36.6276 16.4648C36.81 16.5866 37.0261 16.699 37.2777 16.8028C37.5292 16.9067 37.8587 16.9592 38.2658 16.9592C38.8382 16.9592 39.2626 16.8315 39.5401 16.5753C39.8176 16.3198 39.9561 16.0183 39.9561 15.6716C39.9561 15.4028 39.8842 15.1819 39.741 15.0082C39.5981 14.8345 39.4096 14.6855 39.1755 14.5597C38.9413 14.4339 38.6771 14.3215 38.3822 14.2217C38.0875 14.1225 37.7841 14.0114 37.472 13.8903C37.1599 13.7692 36.8564 13.6281 36.5617 13.4677C36.2669 13.3074 36.0028 13.1057 35.7685 12.8629C35.5343 12.62 35.3459 12.3212 35.2029 11.9652C35.0598 11.6098 34.9879 11.1806 34.9879 10.6776C34.9879 10.0534 35.1031 9.44654 35.3326 8.85698C35.5623 8.26741 35.905 7.74505 36.36 7.28989C36.8152 6.83475 37.3808 6.46876 38.0569 6.19128C38.733 5.91379 39.5221 5.77539 40.4238 5.77539C41.3254 5.77539 42.1294 5.93109 42.8368 6.24385C43.5433 6.55594 44.1262 6.93788 44.5861 7.38838L43.7603 8.43909C43.2771 9.05395 42.4247 9.23827 41.7314 8.87761C41.5365 8.77779 41.3155 8.68929 41.068 8.61076C40.8212 8.53292 40.537 8.49365 40.2162 8.49365C39.618 8.49365 39.1907 8.60877 38.9353 8.83835C38.6791 9.06858 38.5513 9.36536 38.5513 9.72936C38.5513 9.96359 38.6226 10.1632 38.7656 10.3276C38.9087 10.4926 39.097 10.6397 39.3311 10.7701C39.5655 10.8998 39.8322 11.0196 40.131 11.1274C40.4298 11.2359 40.7358 11.3577 41.0481 11.4914C41.3602 11.6258 41.6656 11.7795 41.965 11.9532C42.2638 12.1269 42.5305 12.3392 42.7649 12.5907C42.999 12.8422 43.1873 13.1417 43.3304 13.4883C43.4736 13.835 43.5447 14.2469 43.5447 14.7241C43.5447 15.4001 43.4103 16.0396 43.1414 16.6425C42.8727 17.2454 42.4866 17.7697 41.9843 18.2162C41.4813 18.6627 40.8723 19.0181 40.157 19.2829C39.4417 19.5472 38.6379 19.6796 37.7448 19.6796C37.3402 19.6796 36.9363 19.6409 36.5397 19.561C36.1026 19.4732 35.6913 19.3528 35.306 19.1984C34.9373 19.0507 34.6014 18.8757 34.298 18.6714C33.9945 18.4678 33.7476 18.2488 33.5566 18.0146L34.3132 16.9033C34.8323 16.1421 35.8683 15.9464 36.6276 16.4648Z" fill="#1A1A1A"/>
<path d="M44.7168 19.4691L46.5974 4.00255C46.8749 1.71747 48.814 0 51.1156 0L50.1661 7.75157C50.7817 7.0755 51.4318 6.57708 52.1171 6.25568C52.8017 5.93495 53.5085 5.77458 54.2371 5.77458C54.7396 5.77458 55.2059 5.86574 55.6352 6.0474C56.0644 6.22972 56.4304 6.4959 56.7339 6.84724C57.0373 7.19859 57.2754 7.62978 57.4492 8.1415C57.6228 8.65321 57.7093 9.24279 57.7093 9.91021C57.7093 10.0666 57.7027 10.2269 57.69 10.3913C57.6775 10.5563 57.6621 10.7254 57.6449 10.8984L56.6308 19.4691H52.5988L53.613 10.8984C53.6303 10.76 53.6436 10.6315 53.6522 10.5151C53.6608 10.398 53.6655 10.2875 53.6655 10.1837C53.6655 9.71523 53.5831 9.3905 53.4187 9.20818C53.2536 9.02586 53.0068 8.93537 52.6773 8.93537C52.4086 8.93537 52.1264 9.01588 51.8323 9.17623C51.5374 9.33661 51.2533 9.56419 50.9805 9.85896C50.7077 10.1538 50.4514 10.5091 50.2134 10.9256C49.9744 11.3415 49.7775 11.806 49.6217 12.3171L49.2377 15.4679C48.9577 17.7516 47.0179 19.4691 44.7168 19.4691Z" fill="#1A1A1A"/>
<path d="M70.2322 19.4686H68.0737C67.8221 19.4686 67.6118 19.436 67.4429 19.3708C67.2738 19.3056 67.1394 19.2171 67.0396 19.1039C66.9398 18.9915 66.8705 18.8571 66.8313 18.7007C66.792 18.5443 66.7727 18.3753 66.7727 18.1936V17.2314C66.2179 17.9947 65.6023 18.5929 64.9262 19.0261C64.2501 19.46 63.5041 19.6762 62.689 19.6762C62.2033 19.6762 61.7354 19.5784 61.2843 19.3834C60.8332 19.1884 60.4346 18.8937 60.0879 18.4991C59.7411 18.1045 59.4636 17.6014 59.2554 16.9906C59.0471 16.379 58.9434 15.6577 58.9434 14.8253C58.9434 13.6029 59.1662 12.443 59.6134 11.3464C60.0598 10.2498 60.6842 9.28955 61.4858 8.46576C62.2877 7.64196 63.2393 6.98784 64.3405 6.50208C65.4412 6.01632 66.651 5.77344 67.9692 5.77344C68.6107 5.77344 69.2608 5.81669 69.9201 5.90319C70.579 5.9897 71.2292 6.14609 71.8713 6.37166L70.2322 19.4686ZM64.3021 16.4901C64.5968 16.4901 64.8829 16.3797 65.1604 16.1588C65.4379 15.9378 65.7001 15.6364 65.947 15.2551C66.1938 14.8738 66.4213 14.4273 66.6297 13.9156C66.6317 13.9103 66.6336 13.9056 66.6356 13.9003C66.9637 13.0912 67.1679 12.2374 67.2765 11.371L67.6312 8.54495H67.3968C66.7381 8.54495 66.1372 8.69267 65.5957 8.98746C65.0539 9.28224 64.5874 9.68348 64.1976 10.1906C63.8076 10.6976 63.5061 11.2872 63.2938 11.9593C63.0815 12.6313 62.9751 13.3487 62.9751 14.1119C62.9751 14.5458 63.0097 14.9138 63.079 15.2172C63.1481 15.5206 63.2413 15.7655 63.3584 15.9518C63.4756 16.1381 63.6139 16.2745 63.7744 16.3617C63.9361 16.4469 64.1111 16.4901 64.3021 16.4901Z" fill="#1A1A1A"/>
<path d="M31.7908 19.4686H29.6323C29.3807 19.4686 29.1704 19.436 29.0013 19.3708C28.8324 19.3056 28.698 19.2171 28.5982 19.1039C28.4982 18.9915 28.4291 18.8571 28.3899 18.7007C28.3506 18.5443 28.3313 18.3753 28.3313 18.1936V17.2314C27.7763 17.9947 27.1609 18.5929 26.4848 19.0261C25.8087 19.46 25.0627 19.6762 24.2476 19.6762C23.7619 19.6762 23.294 19.5784 22.8429 19.3834C22.3918 19.1884 21.9932 18.8937 21.6463 18.4991C21.2997 18.1045 21.0222 17.6014 20.814 16.9906C20.6057 16.3797 20.502 15.6577 20.502 14.8253C20.502 13.6029 20.7248 12.443 21.172 11.3464C21.6184 10.2498 22.2426 9.28955 23.0444 8.46576C23.8463 7.64196 24.7979 6.98784 25.8991 6.50208C26.9998 6.01632 28.2096 5.77344 29.5278 5.77344C30.1691 5.77344 30.8194 5.81669 31.4787 5.90319C32.1376 5.9897 32.7877 6.14609 33.4299 6.37166L31.7908 19.4686ZM25.8599 16.4901C26.1548 16.4901 26.4409 16.3797 26.7184 16.1588C26.9959 15.9378 27.258 15.6364 27.5048 15.2551C27.7516 14.8738 27.9794 14.4273 28.1875 13.9156C28.1895 13.9103 28.1916 13.9056 28.1936 13.9003C28.5217 13.0912 28.7259 12.2374 28.8343 11.371L29.189 8.54495H28.9548C28.2961 8.54495 27.6952 8.69267 27.1535 8.98746C26.6117 9.28224 26.1454 9.68348 25.7554 10.1906C25.3654 10.6976 25.0641 11.2872 24.8518 11.9593C24.6395 12.6313 24.5331 13.3487 24.5331 14.1119C24.5331 14.5458 24.5677 14.9138 24.6368 15.2172C24.7061 15.5206 24.7993 15.7655 24.9163 15.9518C25.0334 16.1381 25.1719 16.2745 25.3322 16.3617C25.4939 16.4469 25.6689 16.4901 25.8599 16.4901Z" fill="#1A1A1A"/>
</g>
<defs>
<clipPath id="clip0_526_40893">
<rect width="71.8662" height="19.7241" fill="white" transform="translate(0.00585938)"/>
</clipPath>
</defs>
</svg>
